<?xml version="1.0" encoding="UTF-8"?>
<svg id="Layer_1" xmlns="http://www.w3.org/2000/svg" version="1.1" viewBox="0 0 800 800">
  <!-- Generator: Adobe Illustrator 29.0.0, SVG Export Plug-In . SVG Version: 2.1.0 Build 186)  -->
  <defs>
    <style>
      .st0 {
        fill: #364e1a;
        stroke: #1c1c1c;
        stroke-miterlimit: 10;
        stroke-width: 18px;
      }
    </style>
  </defs>
  <path class="st0" d="M719.4,25.1H79.8c-30,0-54.3,24.1-54.7,54v641.8c.4,29.9,24.7,54,54.7,54h640.3c30,0,54.4-24.1,54.9-54h0V79.1c-.5-29.9-24.8-54-54.9-54h-.7.1ZM247.5,664.1h-111.3v-357.8h111.3v357.8ZM191.8,257.3c-35.6,0-64.5-28.9-64.5-64.5s28.9-64.5,64.5-64.5,64.5,28.9,64.5,64.5h0c0,35.7-28.9,64.5-64.4,64.5h0,0ZM663.9,664.1h-111v-174c0-41.5-.9-94.9-57.8-94.9s-66.7,45.1-66.7,91.8v177h-111v-357.8h106.7v48.8h1.5c20.7-34.9,58.2-57.9,101-57.9s3,0,4.5,0h-.2c112.5,0,133.3,74,133.3,170.4v196.4h0Z"/>
</svg>